Coordinates
version=1
nRows=11
nColumns=40
inDegrees=yes
endheader
time	pelvis_tilt	pelvis_list	pelvis_rotation	pelvis_tx	pelvis_ty	pelvis_tz	hip_flexion_r	hip_adduction_r	hip_rotation_r	knee_angle_r	knee_angle_r_beta	ankle_angle_r	subtalar_angle_r	mtp_angle_r	hip_flexion_l	hip_adduction_l	hip_rotation_l	knee_angle_l	knee_angle_l_beta	ankle_angle_l	subtalar_angle_l	mtp_angle_l	lumbar_extension	lumbar_bending	lumbar_rotation	arm_flex_r	arm_add_r	arm_rot_r	elbow_flex_r	pro_sup_r	wrist_flex_r	wrist_dev_r	arm_flex_l	arm_add_l	arm_rot_l	elbow_flex_l	pro_sup_l	wrist_flex_l	wrist_dev_l
1760624938.97971511	      8.03166799	     -1.42909175	      0.61784555	      0.16546023	      0.86940161	     -0.00313888	     80.00000000	     -7.00000000	      0.00000000	     80.00000000	      1.39626340	      0.00000000	      0.00000000	      0.00000000	     80.00000000	     -7.00000000	      0.00000000	     80.00000000	      1.39626340	      0.00000000	      0.00000000	      0.00000000	    -14.32493122	     -1.93357346	      3.10619275	     -0.73347146	     -8.13467216	     -5.15359643	    101.13091602	      0.00000000	    -14.07745145	    -11.00627996	     -1.45661356	     -5.59508545	    -19.94776006	     92.92391866	    179.99984796	     12.57487382	    -24.99999983
1760624938.98971510	      8.03204445	     -1.42910902	      0.61809312	      0.16548298	      0.86939060	     -0.00315546	     80.00000000	     -7.00000000	      0.00000000	     80.00000000	      1.39626340	      0.00000000	      0.00000000	      0.00000000	     80.00000000	     -7.00000000	      0.00000000	     80.00000000	      1.39626340	      0.00000000	      0.00000000	      0.00000000	    -14.32459708	     -1.93351937	      3.10660385	     -0.73238273	     -8.13387718	     -5.15317035	    101.13170346	      0.00000000	    -14.07745145	    -11.00627996	     -1.45664911	     -5.59446882	    -19.94750538	     92.92420233	    179.99984796	     12.57487382	    -24.99999983
1760624938.99971509	      8.03237489	     -1.42918888	      0.61833066	      0.16550915	      0.86937568	     -0.00317582	     80.00000000	     -7.00000000	      0.00000000	     80.00000000	      1.39626340	      0.00000000	      0.00000000	      0.00000000	     80.00000000	     -7.00000000	      0.00000000	     80.00000000	      1.39626340	      0.00000000	      0.00000000	      0.00000000	    -14.32430760	     -1.93350334	      3.10702474	     -0.73107068	     -8.13305270	     -5.15275799	    101.13253040	      0.00000000	    -14.07745145	    -11.00627996	     -1.45661265	     -5.59386218	    -19.94726898	     92.92441469	    179.99984796	     12.57487382	    -24.99999983
1760624939.00971508	      8.03415184	     -1.43314580	      0.60341166	      0.16544490	      0.86933527	     -0.00317617	     80.00000000	     -7.00000000	      0.00000000	     80.00000000	      1.39626340	      0.00000000	      0.00000000	      0.00000000	     80.00000000	     -7.00000000	      0.00000000	     80.00000000	      1.39626340	      0.00000000	      0.00000000	      0.00000000	    -14.32678322	     -1.92359249	      3.10158529	     -0.65102338	     -8.06157842	     -5.11827906	    101.20072196	      0.00000000	    -14.07745145	    -11.00627996	     -1.45391016	     -5.53945364	    -19.92765870	     92.93171617	    179.99984796	     12.57487382	    -24.99999983
1760624939.01971507	      8.03349274	     -1.43349903	      0.60332453	      0.16547223	      0.86931850	     -0.00319663	     80.00000000	     -7.00000000	      0.00000000	     80.00000000	      1.39626340	      0.00000000	      0.00000000	      0.00000000	     80.00000000	     -7.00000000	      0.00000000	     80.00000000	      1.39626340	      0.00000000	      0.00000000	      0.00000000	    -14.32751894	     -1.92373582	      3.10161733	     -0.65065287	     -8.06194091	     -5.11840953	    101.20101886	      0.00000000	    -14.07745145	    -11.00627996	     -1.45386367	     -5.53992230	    -19.92800440	     92.93172239	    179.99984796	     12.57487382	    -24.99999983
1760624939.02971506	      8.03294015	     -1.43395260	      0.60332712	      0.16549178	      0.86930897	     -0.00321560	     80.00000000	     -7.00000000	      0.00000000	     80.00000000	      1.39626340	      0.00000000	      0.00000000	      0.00000000	     80.00000000	     -7.00000000	      0.00000000	     80.00000000	      1.39626340	      0.00000000	      0.00000000	      0.00000000	    -14.32813208	     -1.92400165	      3.10170405	     -0.65008571	     -8.06226719	     -5.11855832	    101.20137715	      0.00000000	    -14.07745145	    -11.00627996	     -1.45383528	     -5.54036858	    -19.92834972	     92.93166107	    179.99984796	     12.57487382	    -24.99999983
1760624939.03971505	      8.03252143	     -1.43458316	      0.60341689	      0.16550321	      0.86930277	     -0.00323454	     80.00000000	     -7.00000000	      0.00000000	     80.00000000	      1.39626340	      0.00000000	      0.00000000	      0.00000000	     80.00000000	     -7.00000000	      0.00000000	     80.00000000	      1.39626340	      0.00000000	      0.00000000	      0.00000000	    -14.32861731	     -1.92444904	      3.10182818	     -0.64937486	     -8.06261428	     -5.11874040	    101.20178036	      0.00000000	    -14.07745145	    -11.00627996	     -1.45381362	     -5.54081516	    -19.92870460	     92.93154627	    179.99984796	     12.57487382	    -24.99999983
1760624939.04971504	      8.03206782	     -1.43519167	      0.60359850	      0.16551334	      0.86929889	     -0.00324337	     80.00000000	     -7.00000000	      0.00000000	     80.00000000	      1.39626340	      0.00000000	      0.00000000	      0.00000000	     80.00000000	     -7.00000000	      0.00000000	     80.00000000	      1.39626340	      0.00000000	      0.00000000	      0.00000000	    -14.32912089	     -1.92493553	      3.10199273	     -0.64853413	     -8.06302296	     -5.11896385	    101.20220384	      0.00000000	    -14.07745145	    -11.00627996	     -1.45382993	     -5.54123602	    -19.92905324	     92.93136948	    179.99984796	     12.57487382	    -24.99999983
1760624939.05971503	      8.03160023	     -1.43587782	      0.60390632	      0.16551970	      0.86930104	     -0.00324853	     80.00000000	     -7.00000000	      0.00000000	     80.00000000	      1.39626340	      0.00000000	      0.00000000	      0.00000000	     80.00000000	     -7.00000000	      0.00000000	     80.00000000	      1.39626340	      0.00000000	      0.00000000	      0.00000000	    -14.32960545	     -1.92554647	      3.10223897	     -0.64758996	     -8.06355495	     -5.11924663	    101.20264112	      0.00000000	    -14.07745145	    -11.00627996	     -1.45393361	     -5.54167252	    -19.92942695	     92.93113475	    179.99984796	     12.57487382	    -24.99999983
1760624939.06971502	      8.03107580	     -1.43665291	      0.60438918	      0.16552660	      0.86930456	     -0.00325367	     80.00000000	     -7.00000000	      0.00000000	     80.00000000	      1.39626340	      0.00000000	      0.00000000	      0.00000000	     80.00000000	     -7.00000000	      0.00000000	     80.00000000	      1.39626340	      0.00000000	      0.00000000	      0.00000000	    -14.33013009	     -1.92627975	      3.10263110	     -0.64652519	     -8.06417353	     -5.11955120	    101.20308416	      0.00000000	    -14.07745145	    -11.00627996	     -1.45413664	     -5.54211521	    -19.92981075	     92.93085811	    179.99984796	     12.57487382	    -24.99999983
1760624939.07971501	      8.03057129	     -1.43740470	      0.60501896	      0.16552899	      0.86930936	     -0.00325411	     80.00000000	     -7.00000000	      0.00000000	     80.00000000	      1.39626340	      0.00000000	      0.00000000	      0.00000000	     80.00000000	     -7.00000000	      0.00000000	     80.00000000	      1.39626340	      0.00000000	      0.00000000	      0.00000000	    -14.33063175	     -1.92705339	      3.10314278	     -0.64538574	     -8.06489635	     -5.11987954	    101.20353564	      0.00000000	    -14.07745145	    -11.00627996	     -1.45445255	     -5.54255345	    -19.93020606	     92.93054994	    179.99984796	     12.57487382	    -24.99999983
